<svg xmlns="http://www.w3.org/2000/svg" viewBox="0 0 50 50"><path d="M25,1C15.37,1,7.56,21.18,7.56,31.08A17.68,17.68,0,0,0,25,49,17.68,17.68,0,0,0,42.44,31.08C42.44,21.18,34.63,1,25,1ZM11.36,21c7.62.55,12.11,8.32,13.11,10.26v7.33a25.73,25.73,0,0,0-2.69-3c-3.71-3.46-7.92-5-12.21-4.65a33.57,33.57,0,0,1,1.3-8.31C11,22.16,11.19,21.6,11.36,21ZM26.47,31.33c.6-1.44,4.34-9.69,12.17-10.29.17.56.34,1.12.49,1.68A34.25,34.25,0,0,1,40.43,31c-6.87-.63-11.54,3.75-14,6.89ZM38,19.09c-5.8.64-9.5,4.74-11.53,7.93V18.16c.6-1.71,3-7.51,7.37-8,.58.94,1.16,2,1.7,3.05A50.71,50.71,0,0,1,38,19.09ZM32.61,8.36c-2.81.7-4.81,3-6.14,5.12V3.22a9.72,9.72,0,0,1,3.92,2.52A20.71,20.71,0,0,1,32.61,8.36Zm-13-2.62A8.52,8.52,0,0,1,24.47,3V14.56c-1.57-2.29-4-5-7.28-5.93A22.09,22.09,0,0,1,19.61,5.74ZM16,10.42c4.64.74,7.86,6.88,8.45,8.09v8.91c-2.26-3.25-6.4-7.69-12.47-8.33a50.71,50.71,0,0,1,2.46-5.86C15,12.23,15.48,11.29,16,10.42ZM9.69,33c8.29-.77,13.67,7.31,14.78,9.15V47A15.11,15.11,0,0,1,14.1,42.36,16,16,0,0,1,9.69,33ZM35.9,42.36a15.2,15.2,0,0,1-9.43,4.57V41.49c.9-1.67,5.48-9.31,13.84-8.5A16,16,0,0,1,35.9,42.36Z"/></svg>