<svg xmlns="http://www.w3.org/2000/svg" viewBox="0 0 50 50"><path d="M48.33,27.37,25.84,5.72s-.05-.09-.09-.13a1,1,0,0,0-.75-.3,1,1,0,0,0-.75.3.91.91,0,0,0-.08.13L1.67,27.37a1,1,0,0,0,0,1.41,1,1,0,0,0,1.41,0l2.76-2.66V39a5.51,5.51,0,0,0,5.32,5.68H38.5A5.51,5.51,0,0,0,43.82,39V25.81l3.12,3a1,1,0,0,0,1.41,0A1,1,0,0,0,48.33,27.37ZM20.82,28.71h8v14h-8Zm21-4.18V39a3.51,3.51,0,0,1-3.32,3.68H30.83v-14a2,2,0,0,0-2-2h-8a2,2,0,0,0-2,2v14H11.14A3.52,3.52,0,0,1,7.82,39V24.5l17-15.11,17,15.11Z"/><path d="M23.09,39.33a1,1,0,0,1-1-1v-1.6a1,1,0,0,1,2,0v1.6A1,1,0,0,1,23.09,39.33Z"/></svg>