<svg xmlns="http://www.w3.org/2000/svg" xmlns:xlink="http://www.w3.org/1999/xlink" style="display:none"><symbol id="icon-arrow-down" viewBox="0 0 10.5 17.9">
<polygon points="9.1,11.2 6.3,14 6.3,0 4.3,0 4.3,14 1.4,11.2 0,12.6 3.8,16.5 5.3,17.9 6.7,16.5 10.5,12.6 "/>
</symbol><symbol id="icon-arrow-left" viewBox="0 0 17.9 10.5">
<polygon points="6.7,9.1 3.8,6.3 17.9,6.3 17.9,4.3 3.8,4.3 6.7,1.4 5.3,0 1.4,3.8 0,5.3 1.4,6.7 5.3,10.5 "/>
</symbol><symbol id="icon-arrow-right" viewBox="0 0 17.9 10.5">
<polygon points="11.2,1.4 14,4.3 0,4.3 0,6.3 14,6.3 11.2,9.1 12.6,10.5 16.5,6.7 17.9,5.3 16.5,3.8 12.6,0 "/>
</symbol><symbol id="icon-arrow-up" viewBox="0 0 10.5 17.9">
<polygon points="1.4,6.7 4.3,3.8 4.3,17.9 6.3,17.9 6.3,3.8 9.1,6.7 10.5,5.3 6.7,1.4 5.3,0 3.8,1.4 0,5.3 "/>
</symbol><symbol id="icon-chevron-down" viewBox="0 0 10.9 7.3">
<polygon points="10.9,1.8 9,0 5.4,3.6 1.8,0 0,1.8 5.4,7.3 7.3,5.4 7.3,5.4 "/>
</symbol><symbol id="icon-download" viewBox="0 0 100 100"><path d="M35.414,50.586c-0.781-0.781-2.047-0.781-2.828,0s-0.781,2.047,0,2.828l15,15C47.977,68.805,48.488,69,49,69  s1.023-0.195,1.414-0.586l15-15c0.781-0.781,0.781-2.047,0-2.828s-2.047-0.781-2.828,0L51,62.171V4c0-1.104-0.896-2-2-2  s-2,0.896-2,2v58.171L35.414,50.586z"/><path d="M38,26H26.245C19.939,26,15,30.752,15,36.819v45.899C15,88.939,20.045,94,26.245,94h45.9  C78.232,94,83,89.045,83,82.719V36.819C83,30.651,78.333,26,72.146,26H60c-1.104,0-2,0.896-2,2s0.896,2,2,2h12.146  C76.181,30,79,32.804,79,36.819v45.899C79,86.87,76.053,90,72.146,90h-45.9C22.25,90,19,86.733,19,82.719V36.819  C19,32.932,22.115,30,26.245,30H38c1.104,0,2-0.896,2-2S39.104,26,38,26z"/></symbol><symbol id="icon-edit" viewBox="0 0 20.19 20.181">
  <g id="noun_edit_icon_3134350" data-name="noun_edit icon_3134350" transform="translate(307.007 -130.001)">
    <g id="Group_52" data-name="Group 52" transform="translate(-307.007 130.001)">
      <path id="Path_18" data-name="Path 18" d="M26.124,8.054a3.588,3.588,0,0,0-5.079,0L7.726,21.413a.561.561,0,0,0-.168.331L7,26.554a.562.562,0,0,0,.561.628h.062l4.855-.5a.594.594,0,0,0,.336-.163L26.124,13.167a3.616,3.616,0,0,0,0-5.113ZM12.154,25.573l-3.958.42.46-3.924L19.308,11.418l3.5,3.509ZM23.585,14.114l-3.5-3.509L21.836,8.85a2.461,2.461,0,0,1,3.5,0,2.489,2.489,0,0,1,0,3.509Z" transform="translate(-6.993 -7.001)"/>
    </g>
  </g>
</symbol><symbol id="icon-expand" viewBox="0 0 18 18">
<polygon fill-rule="evenodd" clip-rule="evenodd" points="3.9,12.1 6,10 7.9,11.9 5.9,13.9 8,16 1.8,16 1.8,10 "/>
<polygon fill-rule="evenodd" clip-rule="evenodd" points="16.2,2 16.2,8 14.1,5.9 12,8 10.1,6.1 12.1,4.1 10,2 "/>
</symbol><symbol id="icon-facebook" viewBox="0 0 448 512"><path d="M400 32H48A48 48 0 0 0 0 80v352a48 48 0 0 0 48 48h137.25V327.69h-63V256h63v-54.64c0-62.15 37-96.48 93.67-96.48 27.14 0 55.52 4.84 55.52 4.84v61h-31.27c-30.81 0-40.42 19.12-40.42 38.73V256h68.78l-11 71.69h-57.78V480H400a48 48 0 0 0 48-48V80a48 48 0 0 0-48-48z" class=""/></symbol><symbol id="icon-instagram" viewBox="0 0 448 512"><path d="M224.1 141c-63.6 0-114.9 51.3-114.9 114.9s51.3 114.9 114.9 114.9S339 319.5 339 255.9 287.7 141 224.1 141zm0 189.6c-41.1 0-74.7-33.5-74.7-74.7s33.5-74.7 74.7-74.7 74.7 33.5 74.7 74.7-33.6 74.7-74.7 74.7zm146.4-194.3c0 14.9-12 26.8-26.8 26.8-14.9 0-26.8-12-26.8-26.8s12-26.8 26.8-26.8 26.8 12 26.8 26.8zm76.1 27.2c-1.7-35.9-9.9-67.7-36.2-93.9-26.2-26.2-58-34.4-93.9-36.2-37-2.1-147.9-2.1-184.9 0-35.8 1.7-67.6 9.9-93.9 36.1s-34.4 58-36.2 93.9c-2.1 37-2.1 147.9 0 184.9 1.7 35.9 9.9 67.7 36.2 93.9s58 34.4 93.9 36.2c37 2.1 147.9 2.1 184.9 0 35.9-1.7 67.7-9.9 93.9-36.2 26.2-26.2 34.4-58 36.2-93.9 2.1-37 2.1-147.8 0-184.8zM398.8 388c-7.8 19.6-22.9 34.7-42.6 42.6-29.5 11.7-99.5 9-132.1 9s-102.7 2.6-132.1-9c-19.6-7.8-34.7-22.9-42.6-42.6-11.7-29.5-9-99.5-9-132.1s-2.6-102.7 9-132.1c7.8-19.6 22.9-34.7 42.6-42.6 29.5-11.7 99.5-9 132.1-9s102.7-2.6 132.1 9c19.6 7.8 34.7 22.9 42.6 42.6 11.7 29.5 9 99.5 9 132.1s2.7 102.7-9 132.1z" class=""/></symbol><symbol id="icon-pinterest" viewBox="0 0 496 512"><path d="M496 256c0 137-111 248-248 248-25.6 0-50.2-3.9-73.4-11.1 10.1-16.5 25.2-43.5 30.8-65 3-11.6 15.4-59 15.4-59 8.1 15.4 31.7 28.5 56.8 28.5 74.8 0 128.7-68.8 128.7-154.3 0-81.9-66.9-143.2-152.9-143.2-107 0-163.9 71.8-163.9 150.1 0 36.4 19.4 81.7 50.3 96.1 4.7 2.2 7.2 1.2 8.3-3.3.8-3.4 5-20.3 6.9-28.1.6-2.5.3-4.7-1.7-7.1-10.1-12.5-18.3-35.3-18.3-56.6 0-54.7 41.4-107.6 112-107.6 60.9 0 103.6 41.5 103.6 100.9 0 67.1-33.9 113.6-78 113.6-24.3 0-42.6-20.1-36.7-44.8 7-29.5 20.5-61.3 20.5-82.6 0-19-10.2-34.9-31.4-34.9-24.9 0-44.9 25.7-44.9 60.2 0 22 7.4 36.8 7.4 36.8s-24.5 103.8-29 123.2c-5 21.4-3 51.6-.9 71.2C65.4 450.9 0 361.1 0 256 0 119 111 8 248 8s248 111 248 248z" class=""/></symbol><symbol id="icon-play" viewBox="0 0 15 22.4">
<polygon id="Triangle" points="15,11.2 0,22.4 0,0 "/>
</symbol><symbol id="icon-twitter" viewBox="0 0 512 512"><path d="M459.37 151.716c.325 4.548.325 9.097.325 13.645 0 138.72-105.583 298.558-298.558 298.558-59.452 0-114.68-17.219-161.137-47.106 8.447.974 16.568 1.299 25.34 1.299 49.055 0 94.213-16.568 130.274-44.832-46.132-.975-84.792-31.188-98.112-72.772 6.498.974 12.995 1.624 19.818 1.624 9.421 0 18.843-1.3 27.614-3.573-48.081-9.747-84.143-51.98-84.143-102.985v-1.299c13.969 7.797 30.214 12.67 47.431 13.319-28.264-18.843-46.781-51.005-46.781-87.391 0-19.492 5.197-37.36 14.294-52.954 51.655 63.675 129.3 105.258 216.365 109.807-1.624-7.797-2.599-15.918-2.599-24.04 0-57.828 46.782-104.934 104.934-104.934 30.213 0 57.502 12.67 76.67 33.137 23.715-4.548 46.456-13.32 66.599-25.34-7.798 24.366-24.366 44.833-46.132 57.827 21.117-2.273 41.584-8.122 60.426-16.243-14.292 20.791-32.161 39.308-52.628 54.253z" class=""/></symbol><symbol id="icon-x" viewBox="0 0 10.1 10.1">
<polygon points="10.1,1.4 8.7,0 5.1,3.6 1.4,0 0,1.4 3.6,5.1 0,8.7 1.4,10.1 5.1,6.5 8.7,10.1 10.1,8.7 6.5,5.1 "/>
</symbol></svg>