<svg xmlns="http://www.w3.org/2000/svg" width="20.19" height="20.181" viewBox="0 0 20.19 20.181">
  <g id="noun_edit_icon_3134350" data-name="noun_edit icon_3134350" transform="translate(307.007 -130.001)">
    <g id="Group_52" data-name="Group 52" transform="translate(-307.007 130.001)">
      <path id="Path_18" data-name="Path 18" d="M26.124,8.054a3.588,3.588,0,0,0-5.079,0L7.726,21.413a.561.561,0,0,0-.168.331L7,26.554a.562.562,0,0,0,.561.628h.062l4.855-.5a.594.594,0,0,0,.336-.163L26.124,13.167a3.616,3.616,0,0,0,0-5.113ZM12.154,25.573l-3.958.42.46-3.924L19.308,11.418l3.5,3.509ZM23.585,14.114l-3.5-3.509L21.836,8.85a2.461,2.461,0,0,1,3.5,0,2.489,2.489,0,0,1,0,3.509Z" transform="translate(-6.993 -7.001)" fill="#fff"/>
    </g>
  </g>
</svg>
